<mxfile host="app.diagrams.net" agent="Mozilla/5.0 (Windows NT 10.0; Win64; x64) AppleWebKit/537.36 (KHTML, like Gecko) Chrome/129.0.0.0 Safari/537.36 Edg/129.0.0.0" version="24.7.10">
  <diagram name="第 1 页" id="3JHl6DnOMydvL2yhWM_V">
    <mxGraphModel dx="1213" dy="627" grid="1" gridSize="10" guides="1" tooltips="1" connect="1" arrows="1" fold="1" page="1" pageScale="1" pageWidth="827" pageHeight="1169" math="0" shadow="0">
      <root>
        <mxCell id="0" />
        <mxCell id="1" parent="0" />
        <mxCell id="WMp4KT72iI-OxuEAxYet-3" value="" style="rounded=1;whiteSpace=wrap;html=1;fillColor=#f5f5f5;strokeColor=none;fontColor=#333333;" vertex="1" parent="1">
          <mxGeometry x="755" y="239.5" width="190" height="357" as="geometry" />
        </mxCell>
        <mxCell id="UdcMsc0ZTR3omy6T8lng-97" value="" style="rounded=1;whiteSpace=wrap;html=1;fillColor=#f5f5f5;strokeColor=none;fontColor=#333333;" parent="1" vertex="1">
          <mxGeometry x="1300" y="230" width="190" height="460" as="geometry" />
        </mxCell>
        <mxCell id="UdcMsc0ZTR3omy6T8lng-94" style="edgeStyle=orthogonalEdgeStyle;rounded=0;orthogonalLoop=1;jettySize=auto;html=1;" parent="1" source="UdcMsc0ZTR3omy6T8lng-93" target="UdcMsc0ZTR3omy6T8lng-92" edge="1">
          <mxGeometry relative="1" as="geometry">
            <Array as="points">
              <mxPoint x="609" y="470" />
              <mxPoint x="609" y="470" />
            </Array>
          </mxGeometry>
        </mxCell>
        <mxCell id="UdcMsc0ZTR3omy6T8lng-93" value="" style="rounded=1;whiteSpace=wrap;html=1;" parent="1" vertex="1">
          <mxGeometry x="527" y="320" width="173" height="103" as="geometry" />
        </mxCell>
        <mxCell id="UdcMsc0ZTR3omy6T8lng-1" value="" style="rounded=1;whiteSpace=wrap;html=1;fillColor=#f5f5f5;strokeColor=none;fontColor=#333333;" parent="1" vertex="1">
          <mxGeometry x="280" y="220" width="190" height="460" as="geometry" />
        </mxCell>
        <mxCell id="UdcMsc0ZTR3omy6T8lng-2" value="" style="shape=table;startSize=0;container=1;collapsible=0;childLayout=tableLayout;fontSize=16;fillColor=default;swimlaneLine=1;strokeColor=#ABABAB;" parent="1" vertex="1">
          <mxGeometry x="295" y="260" width="165" height="83" as="geometry" />
        </mxCell>
        <mxCell id="UdcMsc0ZTR3omy6T8lng-3" value="" style="shape=tableRow;horizontal=0;startSize=0;swimlaneHead=0;swimlaneBody=0;strokeColor=inherit;top=0;left=0;bottom=0;right=0;collapsible=0;dropTarget=0;fillColor=none;points=[[0,0.5],[1,0.5]];portConstraint=eastwest;fontSize=16;" parent="UdcMsc0ZTR3omy6T8lng-2" vertex="1">
          <mxGeometry width="165" height="30" as="geometry" />
        </mxCell>
        <mxCell id="UdcMsc0ZTR3omy6T8lng-4" value="Year" style="shape=partialRectangle;html=1;whiteSpace=wrap;connectable=0;strokeColor=inherit;overflow=hidden;fillColor=none;top=0;left=0;bottom=0;right=0;pointerEvents=1;fontSize=16;" parent="UdcMsc0ZTR3omy6T8lng-3" vertex="1">
          <mxGeometry width="56" height="30" as="geometry">
            <mxRectangle width="56" height="30" as="alternateBounds" />
          </mxGeometry>
        </mxCell>
        <mxCell id="UdcMsc0ZTR3omy6T8lng-5" value="Title" style="shape=partialRectangle;html=1;whiteSpace=wrap;connectable=0;strokeColor=inherit;overflow=hidden;fillColor=none;top=0;left=0;bottom=0;right=0;pointerEvents=1;fontSize=16;" parent="UdcMsc0ZTR3omy6T8lng-3" vertex="1">
          <mxGeometry x="56" width="49" height="30" as="geometry">
            <mxRectangle width="49" height="30" as="alternateBounds" />
          </mxGeometry>
        </mxCell>
        <mxCell id="UdcMsc0ZTR3omy6T8lng-6" value="Owner" style="shape=partialRectangle;html=1;whiteSpace=wrap;connectable=0;strokeColor=inherit;overflow=hidden;fillColor=none;top=0;left=0;bottom=0;right=0;pointerEvents=1;fontSize=16;" parent="UdcMsc0ZTR3omy6T8lng-3" vertex="1">
          <mxGeometry x="105" width="60" height="30" as="geometry">
            <mxRectangle width="60" height="30" as="alternateBounds" />
          </mxGeometry>
        </mxCell>
        <mxCell id="UdcMsc0ZTR3omy6T8lng-7" value="" style="shape=tableRow;horizontal=0;startSize=0;swimlaneHead=0;swimlaneBody=0;strokeColor=inherit;top=0;left=0;bottom=0;right=0;collapsible=0;dropTarget=0;fillColor=none;points=[[0,0.5],[1,0.5]];portConstraint=eastwest;fontSize=16;" parent="UdcMsc0ZTR3omy6T8lng-2" vertex="1">
          <mxGeometry y="30" width="165" height="26" as="geometry" />
        </mxCell>
        <mxCell id="UdcMsc0ZTR3omy6T8lng-8" value="2012" style="shape=partialRectangle;html=1;whiteSpace=wrap;connectable=0;strokeColor=#6c8ebf;overflow=hidden;fillColor=#dae8fc;top=0;left=0;bottom=0;right=0;pointerEvents=1;fontSize=16;" parent="UdcMsc0ZTR3omy6T8lng-7" vertex="1">
          <mxGeometry width="56" height="26" as="geometry">
            <mxRectangle width="56" height="26" as="alternateBounds" />
          </mxGeometry>
        </mxCell>
        <mxCell id="UdcMsc0ZTR3omy6T8lng-9" value="count" style="shape=partialRectangle;html=1;whiteSpace=wrap;connectable=0;strokeColor=#6c8ebf;overflow=hidden;fillColor=#dae8fc;top=0;left=0;bottom=0;right=0;pointerEvents=1;fontSize=16;" parent="UdcMsc0ZTR3omy6T8lng-7" vertex="1">
          <mxGeometry x="56" width="49" height="26" as="geometry">
            <mxRectangle width="49" height="26" as="alternateBounds" />
          </mxGeometry>
        </mxCell>
        <mxCell id="UdcMsc0ZTR3omy6T8lng-10" value="omaha" style="shape=partialRectangle;html=1;whiteSpace=wrap;connectable=0;strokeColor=#6c8ebf;overflow=hidden;fillColor=#dae8fc;top=0;left=0;bottom=0;right=0;pointerEvents=1;fontSize=16;" parent="UdcMsc0ZTR3omy6T8lng-7" vertex="1">
          <mxGeometry x="105" width="60" height="26" as="geometry">
            <mxRectangle width="60" height="26" as="alternateBounds" />
          </mxGeometry>
        </mxCell>
        <mxCell id="UdcMsc0ZTR3omy6T8lng-11" value="" style="shape=tableRow;horizontal=0;startSize=0;swimlaneHead=0;swimlaneBody=0;strokeColor=inherit;top=0;left=0;bottom=0;right=0;collapsible=0;dropTarget=0;fillColor=none;points=[[0,0.5],[1,0.5]];portConstraint=eastwest;fontSize=16;" parent="UdcMsc0ZTR3omy6T8lng-2" vertex="1">
          <mxGeometry y="56" width="165" height="27" as="geometry" />
        </mxCell>
        <mxCell id="UdcMsc0ZTR3omy6T8lng-12" value="..." style="shape=partialRectangle;html=1;whiteSpace=wrap;connectable=0;strokeColor=#6c8ebf;overflow=hidden;fillColor=#dae8fc;top=0;left=0;bottom=0;right=0;pointerEvents=1;fontSize=16;" parent="UdcMsc0ZTR3omy6T8lng-11" vertex="1">
          <mxGeometry width="56" height="27" as="geometry">
            <mxRectangle width="56" height="27" as="alternateBounds" />
          </mxGeometry>
        </mxCell>
        <mxCell id="UdcMsc0ZTR3omy6T8lng-13" value="..." style="shape=partialRectangle;html=1;whiteSpace=wrap;connectable=0;strokeColor=#6c8ebf;overflow=hidden;fillColor=#dae8fc;top=0;left=0;bottom=0;right=0;pointerEvents=1;fontSize=16;" parent="UdcMsc0ZTR3omy6T8lng-11" vertex="1">
          <mxGeometry x="56" width="49" height="27" as="geometry">
            <mxRectangle width="49" height="27" as="alternateBounds" />
          </mxGeometry>
        </mxCell>
        <mxCell id="UdcMsc0ZTR3omy6T8lng-14" value="..." style="shape=partialRectangle;html=1;whiteSpace=wrap;connectable=0;strokeColor=#6c8ebf;overflow=hidden;fillColor=#dae8fc;top=0;left=0;bottom=0;right=0;pointerEvents=1;fontSize=16;" parent="UdcMsc0ZTR3omy6T8lng-11" vertex="1">
          <mxGeometry x="105" width="60" height="27" as="geometry">
            <mxRectangle width="60" height="27" as="alternateBounds" />
          </mxGeometry>
        </mxCell>
        <mxCell id="UdcMsc0ZTR3omy6T8lng-67" value="&lt;font style=&quot;font-size: 17px;&quot;&gt;Current Table&amp;nbsp;&lt;/font&gt;" style="text;strokeColor=none;fillColor=none;html=1;fontSize=24;fontStyle=1;verticalAlign=middle;align=center;" parent="1" vertex="1">
          <mxGeometry x="300" y="220" width="100" height="40" as="geometry" />
        </mxCell>
        <mxCell id="UdcMsc0ZTR3omy6T8lng-68" value="&lt;span style=&quot;font-size: 17px;&quot;&gt;Opeation Chain&lt;/span&gt;" style="text;strokeColor=none;fillColor=none;html=1;fontSize=24;fontStyle=1;verticalAlign=middle;align=center;" parent="1" vertex="1">
          <mxGeometry x="300" y="343" width="100" height="40" as="geometry" />
        </mxCell>
        <mxCell id="UdcMsc0ZTR3omy6T8lng-69" value="f_add_column" style="rounded=0;whiteSpace=wrap;html=1;fillColor=#dae8fc;strokeColor=#6c8ebf;" parent="1" vertex="1">
          <mxGeometry x="330" y="383" width="130" height="20" as="geometry" />
        </mxCell>
        <mxCell id="UdcMsc0ZTR3omy6T8lng-71" value="f_select_row" style="rounded=0;whiteSpace=wrap;html=1;fillColor=#dae8fc;strokeColor=#6c8ebf;" parent="1" vertex="1">
          <mxGeometry x="330" y="410" width="130" height="20" as="geometry" />
        </mxCell>
        <mxCell id="UdcMsc0ZTR3omy6T8lng-72" value="&lt;font style=&quot;font-size: 13px;&quot;&gt;Op 1&lt;/font&gt;" style="text;strokeColor=none;fillColor=none;html=1;fontSize=24;fontStyle=1;verticalAlign=middle;align=center;" parent="1" vertex="1">
          <mxGeometry x="280" y="378" width="50" height="30" as="geometry" />
        </mxCell>
        <mxCell id="UdcMsc0ZTR3omy6T8lng-73" value="&lt;font style=&quot;font-size: 13px;&quot;&gt;Op 2&lt;/font&gt;" style="text;strokeColor=none;fillColor=none;html=1;fontSize=24;fontStyle=1;verticalAlign=middle;align=center;" parent="1" vertex="1">
          <mxGeometry x="280" y="400" width="50" height="30" as="geometry" />
        </mxCell>
        <mxCell id="UdcMsc0ZTR3omy6T8lng-74" value="&lt;span style=&quot;font-size: 17px;&quot;&gt;Question&lt;/span&gt;" style="text;strokeColor=none;fillColor=none;html=1;fontSize=24;fontStyle=1;verticalAlign=middle;align=center;" parent="1" vertex="1">
          <mxGeometry x="280" y="565" width="100" height="40" as="geometry" />
        </mxCell>
        <mxCell id="UdcMsc0ZTR3omy6T8lng-75" value="&lt;p style=&quot;line-height: 80%;&quot;&gt;&lt;/p&gt;&lt;div style=&quot;line-height: 40%; font-size: 11px;&quot;&gt;&lt;pre style=&quot;line-height: 40%;&quot;&gt;&lt;font style=&quot;font-size: 11px;&quot; face=&quot;Verdana&quot;&gt;Who won best Director in &lt;/font&gt;&lt;/pre&gt;&lt;pre style=&quot;line-height: 40%;&quot;&gt;&lt;font style=&quot;font-size: 11px;&quot; face=&quot;ynwQLnobWuk-l8IQKLAV&quot;&gt;the 1972 Academy Awards&lt;/font&gt;&lt;/pre&gt;&lt;/div&gt;&lt;p&gt;&lt;/p&gt;" style="rounded=1;whiteSpace=wrap;html=1;align=center;" parent="1" vertex="1">
          <mxGeometry x="295" y="605" width="160" height="60" as="geometry" />
        </mxCell>
        <mxCell id="UdcMsc0ZTR3omy6T8lng-78" value="&lt;span style=&quot;font-size: 17px;&quot;&gt;&lt;span style=&quot;white-space: pre;&quot;&gt;&#x9;&lt;/span&gt;Candidate Opeation&lt;/span&gt;" style="text;strokeColor=none;fillColor=none;html=1;fontSize=24;fontStyle=1;verticalAlign=middle;align=center;" parent="1" vertex="1">
          <mxGeometry x="300" y="430" width="100" height="40" as="geometry" />
        </mxCell>
        <mxCell id="UdcMsc0ZTR3omy6T8lng-79" value="" style="rounded=1;whiteSpace=wrap;html=1;" parent="1" vertex="1">
          <mxGeometry x="300" y="470" width="150" height="100" as="geometry" />
        </mxCell>
        <mxCell id="UdcMsc0ZTR3omy6T8lng-80" value="seletct_row_schema" style="rounded=0;whiteSpace=wrap;html=1;fillColor=#fff2cc;strokeColor=#d6b656;" parent="1" vertex="1">
          <mxGeometry x="310" y="480" width="130" height="20" as="geometry" />
        </mxCell>
        <mxCell id="UdcMsc0ZTR3omy6T8lng-81" value="group_by_schema" style="rounded=0;whiteSpace=wrap;html=1;fillColor=#fff2cc;strokeColor=#d6b656;" parent="1" vertex="1">
          <mxGeometry x="310" y="510" width="130" height="20" as="geometry" />
        </mxCell>
        <mxCell id="UdcMsc0ZTR3omy6T8lng-82" value="sort_by_schema" style="rounded=0;whiteSpace=wrap;html=1;fillColor=#fff2cc;strokeColor=#d6b656;" parent="1" vertex="1">
          <mxGeometry x="310" y="540" width="130" height="20" as="geometry" />
        </mxCell>
        <mxCell id="UdcMsc0ZTR3omy6T8lng-84" value="&lt;span style=&quot;font-size: 17px;&quot;&gt;dynamic plan&lt;/span&gt;" style="text;strokeColor=none;fillColor=none;html=1;fontSize=24;fontStyle=1;verticalAlign=middle;align=center;" parent="1" vertex="1">
          <mxGeometry x="295" y="180" width="100" height="40" as="geometry" />
        </mxCell>
        <mxCell id="UdcMsc0ZTR3omy6T8lng-89" value="" style="edgeStyle=orthogonalEdgeStyle;rounded=0;orthogonalLoop=1;jettySize=auto;html=1;" parent="1" source="UdcMsc0ZTR3omy6T8lng-85" target="UdcMsc0ZTR3omy6T8lng-88" edge="1">
          <mxGeometry relative="1" as="geometry" />
        </mxCell>
        <mxCell id="UdcMsc0ZTR3omy6T8lng-85" value="f_select_row" style="rounded=0;whiteSpace=wrap;html=1;fillColor=#dae8fc;strokeColor=#6c8ebf;" parent="1" vertex="1">
          <mxGeometry x="537" y="357" width="140" height="20" as="geometry" />
        </mxCell>
        <mxCell id="UdcMsc0ZTR3omy6T8lng-88" value="&amp;lt;END&amp;gt;" style="rounded=0;whiteSpace=wrap;html=1;fillColor=#dae8fc;strokeColor=#6c8ebf;" parent="1" vertex="1">
          <mxGeometry x="537" y="388" width="143" height="20" as="geometry" />
        </mxCell>
        <mxCell id="UdcMsc0ZTR3omy6T8lng-91" value="&lt;span style=&quot;font-size: 17px;&quot;&gt;gen chain&lt;/span&gt;" style="text;strokeColor=none;fillColor=none;html=1;fontSize=24;fontStyle=1;verticalAlign=middle;align=center;" parent="1" vertex="1">
          <mxGeometry x="527" y="310" width="100" height="40" as="geometry" />
        </mxCell>
        <mxCell id="UdcMsc0ZTR3omy6T8lng-92" value="f_select_row" style="rounded=0;whiteSpace=wrap;html=1;fillColor=#dae8fc;strokeColor=#6c8ebf;" parent="1" vertex="1">
          <mxGeometry x="550" y="480" width="140" height="20" as="geometry" />
        </mxCell>
        <mxCell id="UdcMsc0ZTR3omy6T8lng-95" value="&lt;span style=&quot;font-size: 17px;&quot;&gt;parse&lt;/span&gt;" style="text;strokeColor=none;fillColor=none;html=1;fontSize=24;fontStyle=1;verticalAlign=middle;align=center;" parent="1" vertex="1">
          <mxGeometry x="590" y="430" width="100" height="40" as="geometry" />
        </mxCell>
        <mxCell id="UdcMsc0ZTR3omy6T8lng-98" value="" style="shape=table;startSize=0;container=1;collapsible=0;childLayout=tableLayout;fontSize=16;fillColor=default;swimlaneLine=1;strokeColor=#ABABAB;" parent="1" vertex="1">
          <mxGeometry x="780" y="286.5" width="165" height="83" as="geometry" />
        </mxCell>
        <mxCell id="UdcMsc0ZTR3omy6T8lng-99" value="" style="shape=tableRow;horizontal=0;startSize=0;swimlaneHead=0;swimlaneBody=0;strokeColor=inherit;top=0;left=0;bottom=0;right=0;collapsible=0;dropTarget=0;fillColor=none;points=[[0,0.5],[1,0.5]];portConstraint=eastwest;fontSize=16;" parent="UdcMsc0ZTR3omy6T8lng-98" vertex="1">
          <mxGeometry width="165" height="30" as="geometry" />
        </mxCell>
        <mxCell id="UdcMsc0ZTR3omy6T8lng-100" value="Year" style="shape=partialRectangle;html=1;whiteSpace=wrap;connectable=0;strokeColor=inherit;overflow=hidden;fillColor=none;top=0;left=0;bottom=0;right=0;pointerEvents=1;fontSize=16;" parent="UdcMsc0ZTR3omy6T8lng-99" vertex="1">
          <mxGeometry width="56" height="30" as="geometry">
            <mxRectangle width="56" height="30" as="alternateBounds" />
          </mxGeometry>
        </mxCell>
        <mxCell id="UdcMsc0ZTR3omy6T8lng-101" value="Title" style="shape=partialRectangle;html=1;whiteSpace=wrap;connectable=0;strokeColor=inherit;overflow=hidden;fillColor=none;top=0;left=0;bottom=0;right=0;pointerEvents=1;fontSize=16;" parent="UdcMsc0ZTR3omy6T8lng-99" vertex="1">
          <mxGeometry x="56" width="49" height="30" as="geometry">
            <mxRectangle width="49" height="30" as="alternateBounds" />
          </mxGeometry>
        </mxCell>
        <mxCell id="UdcMsc0ZTR3omy6T8lng-102" value="Owner" style="shape=partialRectangle;html=1;whiteSpace=wrap;connectable=0;strokeColor=inherit;overflow=hidden;fillColor=none;top=0;left=0;bottom=0;right=0;pointerEvents=1;fontSize=16;" parent="UdcMsc0ZTR3omy6T8lng-99" vertex="1">
          <mxGeometry x="105" width="60" height="30" as="geometry">
            <mxRectangle width="60" height="30" as="alternateBounds" />
          </mxGeometry>
        </mxCell>
        <mxCell id="UdcMsc0ZTR3omy6T8lng-103" value="" style="shape=tableRow;horizontal=0;startSize=0;swimlaneHead=0;swimlaneBody=0;strokeColor=inherit;top=0;left=0;bottom=0;right=0;collapsible=0;dropTarget=0;fillColor=none;points=[[0,0.5],[1,0.5]];portConstraint=eastwest;fontSize=16;" parent="UdcMsc0ZTR3omy6T8lng-98" vertex="1">
          <mxGeometry y="30" width="165" height="26" as="geometry" />
        </mxCell>
        <mxCell id="UdcMsc0ZTR3omy6T8lng-104" value="2012" style="shape=partialRectangle;html=1;whiteSpace=wrap;connectable=0;strokeColor=#6c8ebf;overflow=hidden;fillColor=#dae8fc;top=0;left=0;bottom=0;right=0;pointerEvents=1;fontSize=16;" parent="UdcMsc0ZTR3omy6T8lng-103" vertex="1">
          <mxGeometry width="56" height="26" as="geometry">
            <mxRectangle width="56" height="26" as="alternateBounds" />
          </mxGeometry>
        </mxCell>
        <mxCell id="UdcMsc0ZTR3omy6T8lng-105" value="count" style="shape=partialRectangle;html=1;whiteSpace=wrap;connectable=0;strokeColor=#6c8ebf;overflow=hidden;fillColor=#dae8fc;top=0;left=0;bottom=0;right=0;pointerEvents=1;fontSize=16;" parent="UdcMsc0ZTR3omy6T8lng-103" vertex="1">
          <mxGeometry x="56" width="49" height="26" as="geometry">
            <mxRectangle width="49" height="26" as="alternateBounds" />
          </mxGeometry>
        </mxCell>
        <mxCell id="UdcMsc0ZTR3omy6T8lng-106" value="omaha" style="shape=partialRectangle;html=1;whiteSpace=wrap;connectable=0;strokeColor=#6c8ebf;overflow=hidden;fillColor=#dae8fc;top=0;left=0;bottom=0;right=0;pointerEvents=1;fontSize=16;" parent="UdcMsc0ZTR3omy6T8lng-103" vertex="1">
          <mxGeometry x="105" width="60" height="26" as="geometry">
            <mxRectangle width="60" height="26" as="alternateBounds" />
          </mxGeometry>
        </mxCell>
        <mxCell id="UdcMsc0ZTR3omy6T8lng-107" value="" style="shape=tableRow;horizontal=0;startSize=0;swimlaneHead=0;swimlaneBody=0;strokeColor=inherit;top=0;left=0;bottom=0;right=0;collapsible=0;dropTarget=0;fillColor=none;points=[[0,0.5],[1,0.5]];portConstraint=eastwest;fontSize=16;" parent="UdcMsc0ZTR3omy6T8lng-98" vertex="1">
          <mxGeometry y="56" width="165" height="27" as="geometry" />
        </mxCell>
        <mxCell id="UdcMsc0ZTR3omy6T8lng-108" value="..." style="shape=partialRectangle;html=1;whiteSpace=wrap;connectable=0;strokeColor=#6c8ebf;overflow=hidden;fillColor=#dae8fc;top=0;left=0;bottom=0;right=0;pointerEvents=1;fontSize=16;" parent="UdcMsc0ZTR3omy6T8lng-107" vertex="1">
          <mxGeometry width="56" height="27" as="geometry">
            <mxRectangle width="56" height="27" as="alternateBounds" />
          </mxGeometry>
        </mxCell>
        <mxCell id="UdcMsc0ZTR3omy6T8lng-109" value="..." style="shape=partialRectangle;html=1;whiteSpace=wrap;connectable=0;strokeColor=#6c8ebf;overflow=hidden;fillColor=#dae8fc;top=0;left=0;bottom=0;right=0;pointerEvents=1;fontSize=16;" parent="UdcMsc0ZTR3omy6T8lng-107" vertex="1">
          <mxGeometry x="56" width="49" height="27" as="geometry">
            <mxRectangle width="49" height="27" as="alternateBounds" />
          </mxGeometry>
        </mxCell>
        <mxCell id="UdcMsc0ZTR3omy6T8lng-110" value="..." style="shape=partialRectangle;html=1;whiteSpace=wrap;connectable=0;strokeColor=#6c8ebf;overflow=hidden;fillColor=#dae8fc;top=0;left=0;bottom=0;right=0;pointerEvents=1;fontSize=16;" parent="UdcMsc0ZTR3omy6T8lng-107" vertex="1">
          <mxGeometry x="105" width="60" height="27" as="geometry">
            <mxRectangle width="60" height="27" as="alternateBounds" />
          </mxGeometry>
        </mxCell>
        <mxCell id="UdcMsc0ZTR3omy6T8lng-111" value="&lt;font style=&quot;font-size: 17px;&quot;&gt;Current Table&amp;nbsp;&lt;/font&gt;" style="text;strokeColor=none;fillColor=none;html=1;fontSize=24;fontStyle=1;verticalAlign=middle;align=center;" parent="1" vertex="1">
          <mxGeometry x="780" y="236.5" width="100" height="40" as="geometry" />
        </mxCell>
        <mxCell id="UdcMsc0ZTR3omy6T8lng-113" value="&lt;span style=&quot;font-size: 17px;&quot;&gt;Next Operation&lt;/span&gt;" style="text;strokeColor=none;fillColor=none;html=1;fontSize=24;fontStyle=1;verticalAlign=middle;align=center;" parent="1" vertex="1">
          <mxGeometry x="780" y="373.5" width="100" height="40" as="geometry" />
        </mxCell>
        <mxCell id="UdcMsc0ZTR3omy6T8lng-114" value="select_row_schema" style="rounded=0;whiteSpace=wrap;html=1;fillColor=#dae8fc;strokeColor=#6c8ebf;" parent="1" vertex="1">
          <mxGeometry x="780" y="426.5" width="140" height="20" as="geometry" />
        </mxCell>
        <mxCell id="UdcMsc0ZTR3omy6T8lng-115" value="function args" style="rounded=0;whiteSpace=wrap;html=1;fillColor=#dae8fc;strokeColor=#6c8ebf;" parent="1" vertex="1">
          <mxGeometry x="780" y="459.5" width="140" height="20" as="geometry" />
        </mxCell>
        <mxCell id="WMp4KT72iI-OxuEAxYet-1" value="&lt;span style=&quot;font-size: 17px;&quot;&gt;Question&lt;/span&gt;" style="text;strokeColor=none;fillColor=none;html=1;fontSize=24;fontStyle=1;verticalAlign=middle;align=center;" vertex="1" parent="1">
          <mxGeometry x="750" y="479.5" width="100" height="40" as="geometry" />
        </mxCell>
        <mxCell id="WMp4KT72iI-OxuEAxYet-2" value="&lt;p style=&quot;line-height: 80%;&quot;&gt;&lt;/p&gt;&lt;div style=&quot;line-height: 40%; font-size: 11px;&quot;&gt;&lt;pre style=&quot;line-height: 40%;&quot;&gt;&lt;font style=&quot;font-size: 11px;&quot; face=&quot;Verdana&quot;&gt;Who won best Director in &lt;/font&gt;&lt;/pre&gt;&lt;pre style=&quot;line-height: 40%;&quot;&gt;&lt;font style=&quot;font-size: 11px;&quot; face=&quot;ynwQLnobWuk-l8IQKLAV&quot;&gt;the 1972 Academy Awards&lt;/font&gt;&lt;/pre&gt;&lt;/div&gt;&lt;p&gt;&lt;/p&gt;" style="rounded=1;whiteSpace=wrap;html=1;align=center;" vertex="1" parent="1">
          <mxGeometry x="770" y="519.5" width="160" height="60" as="geometry" />
        </mxCell>
        <mxCell id="WMp4KT72iI-OxuEAxYet-4" value="&lt;span style=&quot;font-size: 17px;&quot;&gt;Operation&lt;/span&gt;" style="text;strokeColor=none;fillColor=none;html=1;fontSize=24;fontStyle=1;verticalAlign=middle;align=center;" vertex="1" parent="1">
          <mxGeometry x="750" y="199.5" width="100" height="40" as="geometry" />
        </mxCell>
      </root>
    </mxGraphModel>
  </diagram>
</mxfile>
